<svg id="Layer_1" data-name="Layer 1" xmlns="http://www.w3.org/2000/svg" viewBox="0 0 2000 540"><defs><style>.cls-1{fill:#fff;}</style></defs><title>Artboard 1</title><path class="cls-1" d="M10,16.75q8.49-1.41,17.69-2.12t18.4-.71q9.19,0,18.4.71t17.69,2.12V525.6q-8.49,1.41-17.69,2.12t-18.4.71q-9.92,0-19.11-.71a168.7,168.7,0,0,1-17-2.12ZM130.21,226.23,266.9,16.75q9.9-1.41,19.46-2.12t17.34-.71q9.19,0,19.82.71t21.94,2.12L193.36,246.89a24.93,24.93,0,0,0,.25,27.86L366,525.6q-11.33,1.41-22.29,2.12t-20.88.71q-8.49,0-18.4-.71t-20.52-2.12L131.49,307.46A72.59,72.59,0,0,1,130.21,226.23Z"/><path class="cls-1" d="M435.33,16.75q7.78-1.41,16.63-2.12t18.75-.71q9.19,0,18.4.71t17.69,2.12V423.46a38.44,38.44,0,0,0,38.44,38.44H706.39a120.32,120.32,0,0,1,1.77,16.28q.35,8.49.35,15.57a225.49,225.49,0,0,1-2.12,31.85H522.13a86.79,86.79,0,0,1-86.79-86.79Z"/><path class="cls-1" d="M960.46,534.09q-55.2,0-95.54-19.46A181.57,181.57,0,0,1,798,460.13Q771.5,425.1,758.4,377T745.31,271.53q0-57.33,13.09-105.45T798,82.92a184.91,184.91,0,0,1,66.88-54.85q40.34-19.8,95.54-19.82T1056,28.07a184.91,184.91,0,0,1,66.88,54.85q26.54,35,39.28,83.16t12.74,105.45q0,57.32-12.74,105.45t-39.28,83.16A181.56,181.56,0,0,1,1056,514.63Q1015.66,534.08,960.46,534.09Zm0-62.28q35.38,0,61.22-13.8t42.82-40q17-26.17,25.48-63t8.49-83.51q0-46-8.49-83.16t-25.48-63q-17-25.83-42.82-39.63T960.46,72q-35.4,0-61.22,13.8t-42.82,39.63q-17,25.84-25.48,63t-8.49,83.16q0,46.71,8.49,83.51t25.48,63q17,26.19,42.82,40T960.46,471.81Z"/><path class="cls-1" d="M1280.34,16.75q7.78-1.41,16.63-2.12t18.75-.71q9.19,0,18.4.71t17.69,2.12V423.46a38.44,38.44,0,0,0,38.44,38.44h161.13a120.32,120.32,0,0,1,1.77,16.28q.35,8.49.35,15.57a225.49,225.49,0,0,1-2.12,31.85H1367.13a86.79,86.79,0,0,1-86.79-86.79Z"/><path class="cls-1" d="M1784.86,408.11h0A129.61,129.61,0,0,0,1660.55,501l-7.25,24.56q-9.21,1.41-18.4,2.12t-18.4.71q-9.92,0-19.46-.71a168,168,0,0,1-17.34-2.12L1745.3,16.75q9.19-1.41,19.82-2.12t21.94-.71q9.9,0,20.52.71t20.52,2.12L1993,525.6q-8.49,1.41-19.11,2.12t-20.52.71q-9.21,0-18.75-.71t-18-2.12L1909,500.35A129.61,129.61,0,0,0,1784.86,408.11Zm-46.73-63H1831a23.16,23.16,0,0,0,22.19-29.81l-46.63-155.56c-6.61-22-37.84-22-44.39.06l-46.2,155.56A23.16,23.16,0,0,0,1738.12,345.13Z"/></svg>